<svg width="189" height="65" viewBox="0 0 189 65" fill="none" xmlns="http://www.w3.org/2000/svg">
<g clip-path="url(#clip0_221_2041)">
<path d="M173.868 0.00021125H15.0522C14.4733 0.00021125 13.9014 0.00021125 13.324 0.00346125C12.8407 0.00671125 12.3612 0.0161525 11.8733 0.0240988C10.8132 0.0369392 9.75563 0.132935 8.70974 0.311253C7.66533 0.493452 6.65363 0.836949 5.70886 1.33013C4.76525 1.82748 3.90305 2.47373 3.15353 3.24545C2.40007 4.015 1.77201 4.90449 1.29349 5.87972C0.813653 6.85301 0.48093 7.89599 0.306817 8.97262C0.131048 10.0479 0.036465 11.1356 0.023917 12.2259C0.00926686 12.7241 0.00771975 13.224 0 13.7223V51.2829C0.00771975 51.7875 0.00926686 52.2763 0.023917 52.781C0.0364688 53.8713 0.131052 54.9589 0.306817 56.0341C0.48045 57.1114 0.813192 58.1549 1.29349 59.1286C1.77179 60.1007 2.39994 60.9866 3.15353 61.7518C3.9002 62.527 4.76297 63.1737 5.70886 63.6672C6.65362 64.1617 7.66521 64.5073 8.70974 64.6923C9.75581 64.8692 10.8133 64.9652 11.8733 64.9796C12.3612 64.9906 12.8407 64.997 13.324 64.997C13.9014 65.0002 14.4734 65.0002 15.0522 65.0002H173.868C174.435 65.0002 175.012 65.0002 175.579 64.997C176.06 64.997 176.553 64.9906 177.034 64.9796C178.092 64.966 179.148 64.8699 180.192 64.6923C181.24 64.506 182.255 64.1605 183.204 63.6672C184.149 63.1734 185.011 62.5267 185.757 61.7518C186.509 60.9836 187.138 60.0983 187.623 59.1286C188.099 58.1542 188.429 57.1107 188.6 56.0341C188.776 54.9587 188.874 53.8714 188.893 52.781C188.899 52.2763 188.899 51.7875 188.899 51.2829C188.911 50.6926 188.911 50.1055 188.911 49.5055V15.4964C188.911 14.9013 188.911 14.311 188.899 13.7223C188.899 13.224 188.899 12.7241 188.893 12.2258C188.874 11.1354 188.776 10.048 188.6 8.97255C188.428 7.89654 188.099 6.85365 187.623 5.87966C186.648 3.92491 185.103 2.33375 183.204 1.32998C182.255 0.838008 181.24 0.494602 180.192 0.311106C179.148 0.132003 178.092 0.0359739 177.034 0.0238713C176.553 0.0159413 176.06 0.00641875 175.579 0.00325C175.012 0 174.435 0 173.868 0V0.00021125Z" fill="#A6A6A6"/>
<path d="M13.3319 63.5781C12.8509 63.5781 12.3815 63.5718 11.9043 63.5607C10.9157 63.5475 9.92944 63.4589 8.95355 63.2957C8.04358 63.1344 7.16207 62.8343 6.33808 62.4054C5.52165 61.98 4.77701 61.4222 4.13267 60.7534C3.479 60.0925 2.93479 59.3259 2.5216 58.4841C2.10387 57.6368 1.81477 56.7286 1.66438 55.7911C1.50197 54.7838 1.4141 53.7653 1.40153 52.7443C1.39152 52.4015 1.37842 51.2605 1.37842 51.2605V13.7221C1.37842 13.7221 1.39237 12.5985 1.40161 12.2684C1.41365 11.249 1.50101 10.2321 1.66293 9.22631C1.8136 8.28628 2.10292 7.37547 2.52088 6.5254C2.93254 5.68416 3.47373 4.91702 4.12346 4.25373C4.77246 3.58413 5.51949 3.02348 6.33731 2.59222C7.1594 2.16465 8.03925 1.86669 8.94738 1.70831C9.92647 1.54348 10.9162 1.45437 11.9082 1.44172L13.3327 1.42188H175.572L177.013 1.44251C177.996 1.45454 178.977 1.54286 179.947 1.70672C180.864 1.86708 181.753 2.16713 182.585 2.59698C184.223 3.4661 185.556 4.84114 186.397 6.52936C186.808 7.37356 187.093 8.27695 187.242 9.20886C187.406 10.2229 187.498 11.2478 187.516 12.2756C187.521 12.7358 187.521 13.2301 187.521 13.7221C187.534 14.3314 187.534 14.9114 187.534 15.4962V49.5053C187.534 50.0957 187.534 50.6717 187.521 51.2525C187.521 51.781 187.521 52.265 187.515 52.7633C187.496 53.7727 187.406 54.7793 187.245 55.7752C187.098 56.7194 186.81 57.6347 186.393 58.4889C185.976 59.3216 185.435 60.0816 184.789 60.7407C184.144 61.4131 183.398 61.9742 182.58 62.4023C181.751 62.8345 180.863 63.1357 179.947 63.2957C178.971 63.4598 177.985 63.5484 176.996 63.5607C176.534 63.5718 176.049 63.5781 175.579 63.5781L173.868 63.5814L13.3319 63.5781Z" fill="black"/>
<path d="M39.1019 32.9895C39.1189 31.6332 39.4689 30.3033 40.1194 29.1236C40.7698 27.944 41.6996 26.9528 42.8222 26.2424C42.1091 25.194 41.1682 24.3312 40.0745 23.7226C38.9807 23.1139 37.7642 22.7762 36.5214 22.7362C33.8704 22.4498 31.3004 24.369 29.9495 24.369C28.5725 24.369 26.4926 22.7646 24.2529 22.812C22.8041 22.8602 21.3923 23.2939 20.1548 24.0707C18.9173 24.8475 17.8964 25.9411 17.1915 27.2448C14.1384 32.686 16.4158 40.6827 19.3404 45.081C20.8037 47.2347 22.5139 49.6404 24.7516 49.5551C26.9413 49.4616 27.7591 48.1178 30.4023 48.1178C33.021 48.1178 33.7883 49.5551 36.0714 49.5008C38.421 49.4616 39.9015 47.3376 41.3134 45.1635C42.3648 43.6289 43.1738 41.9328 43.7105 40.1382C42.3454 39.5438 41.1805 38.5491 40.3609 37.2778C39.5414 36.0066 39.1035 34.5152 39.1019 32.9895V32.9895Z" fill="white"/>
<path d="M34.7893 19.8432C36.0705 18.2601 36.7017 16.2253 36.5488 14.1709C34.5915 14.3825 32.7835 15.3454 31.4851 16.8678C30.8502 17.6115 30.364 18.4767 30.0542 19.4139C29.7444 20.3512 29.6171 21.3421 29.6795 22.33C30.6585 22.3404 31.627 22.122 32.5122 21.6912C33.3973 21.2604 34.1759 20.6286 34.7893 19.8432Z" fill="white"/>
<path d="M66.7817 44.1029H59.3092L57.5147 49.5572H54.3496L61.4275 29.3779H64.7159L71.7937 49.5572H68.5747L66.7817 44.1029ZM60.0831 41.5861H66.0063L63.0864 32.7343H63.0047L60.0831 41.5861Z" fill="white"/>
<path d="M87.0793 42.2011C87.0793 46.773 84.702 49.7104 81.1145 49.7104C80.2057 49.7593 79.3019 49.5438 78.5066 49.0886C77.7113 48.6334 77.0566 47.9568 76.6174 47.1364H76.5495V54.4235H73.6157V34.8441H76.4555V37.2912H76.5095C76.9688 36.4747 77.6346 35.8016 78.436 35.3436C79.2374 34.8856 80.1444 34.6598 81.0606 34.6902C84.6881 34.6902 87.0793 37.6419 87.0793 42.2011ZM84.0637 42.2011C84.0637 39.2225 82.5683 37.2642 80.2866 37.2642C78.045 37.2642 76.5372 39.2637 76.5372 42.2011C76.5372 45.1654 78.045 47.1507 80.2866 47.1507C82.5683 47.1507 84.0637 45.2067 84.0637 42.2011Z" fill="white"/>
<path d="M102.811 42.2011C102.811 46.773 100.433 49.7103 96.846 49.7103C95.9372 49.7593 95.0334 49.5438 94.2381 49.0886C93.4427 48.6334 92.788 47.9568 92.3489 47.1363H92.281V54.4235H89.3472V34.8441H92.1869V37.2912H92.2409C92.7002 36.4747 93.366 35.8016 94.1674 35.3436C94.9688 34.8856 95.8758 34.6598 96.7919 34.6902C100.42 34.6902 102.811 37.6419 102.811 42.2011ZM99.7952 42.2011C99.7952 39.2225 98.2997 37.2642 96.0181 37.2642C93.7765 37.2642 92.2687 39.2637 92.2687 42.2011C92.2687 45.1654 93.7765 47.1507 96.0181 47.1507C98.2998 47.1507 99.7952 45.2067 99.7952 42.2011H99.7952Z" fill="white"/>
<path d="M113.208 43.9343C113.425 45.9354 115.314 47.2493 117.895 47.2493C120.367 47.2493 122.147 45.9353 122.147 44.131C122.147 42.5647 121.073 41.6269 118.533 40.9841L115.992 40.3541C112.392 39.4591 110.721 37.7262 110.721 34.9142C110.721 31.4325 113.669 29.041 117.854 29.041C121.997 29.041 124.837 31.4325 124.932 34.9142H121.971C121.793 32.9004 120.176 31.6848 117.813 31.6848C115.449 31.6848 113.832 32.9147 113.832 34.7047C113.832 36.1314 114.865 36.9708 117.392 37.6135L119.552 38.1594C123.574 39.1385 125.245 40.8016 125.245 43.7532C125.245 47.5285 122.324 49.893 117.677 49.893C113.33 49.893 110.394 47.5841 110.205 43.9341L113.208 43.9343Z" fill="white"/>
<path d="M131.577 31.3623V34.844H134.295V37.2355H131.577V45.3462C131.577 46.6062 132.121 47.1934 133.316 47.1934C133.639 47.1876 133.961 47.1642 134.281 47.1235V49.5007C133.744 49.604 133.198 49.6508 132.652 49.6403C129.758 49.6403 128.629 48.5216 128.629 45.6683V37.2355H126.551V34.844H128.629V31.3623H131.577Z" fill="white"/>
<path d="M135.869 42.2009C135.869 37.5719 138.518 34.6631 142.648 34.6631C146.792 34.6631 149.428 37.5718 149.428 42.2009C149.428 46.8427 146.806 49.7388 142.648 49.7388C138.491 49.7388 135.869 46.8426 135.869 42.2009ZM146.439 42.2009C146.439 39.0255 145.025 37.1514 142.648 37.1514C140.271 37.1514 138.858 39.0398 138.858 42.2009C138.858 45.389 140.271 47.2489 142.648 47.2489C145.025 47.2489 146.439 45.389 146.439 42.2009H146.439Z" fill="white"/>
<path d="M151.847 34.844H154.645V37.3481H154.713C154.903 36.566 155.348 35.8749 155.974 35.3908C156.6 34.9068 157.369 34.6593 158.151 34.6901C158.489 34.6888 158.826 34.7266 159.156 34.8027V37.6274C158.73 37.4932 158.284 37.4315 157.838 37.445C157.412 37.4272 156.987 37.5045 156.593 37.6717C156.198 37.8389 155.844 38.092 155.553 38.4135C155.263 38.7351 155.043 39.1176 154.91 39.5346C154.777 39.9517 154.733 40.3936 154.781 40.8298V49.5563H151.847L151.847 34.844Z" fill="white"/>
<path d="M172.683 45.2351C172.288 47.9059 169.762 49.7388 166.529 49.7388C162.371 49.7388 159.79 46.8712 159.79 42.2707C159.79 37.656 162.385 34.6631 166.405 34.6631C170.36 34.6631 172.847 37.4592 172.847 41.92V42.9547H162.752V43.1372C162.705 43.6787 162.771 44.2241 162.945 44.7373C163.119 45.2506 163.397 45.7199 163.76 46.114C164.124 46.5081 164.565 46.8181 165.054 47.0234C165.543 47.2286 166.069 47.3244 166.597 47.3044C167.29 47.3713 167.986 47.206 168.58 46.8332C169.175 46.4603 169.637 45.8999 169.897 45.2351L172.683 45.2351ZM162.765 40.8441H169.911C169.938 40.3573 169.866 39.8701 169.701 39.4131C169.535 38.9561 169.28 38.5393 168.951 38.1887C168.622 37.838 168.226 37.5612 167.788 37.3756C167.35 37.19 166.879 37.0996 166.405 37.1101C165.928 37.1072 165.454 37.2017 165.012 37.3881C164.57 37.5746 164.168 37.8493 163.83 38.1965C163.491 38.5436 163.223 38.9563 163.04 39.4107C162.858 39.8652 162.764 40.3523 162.765 40.8441V40.8441Z" fill="white"/>
<path d="M59.7155 14.1878C60.3305 14.1423 60.9478 14.238 61.5226 14.4678C62.0974 14.6976 62.6155 15.0559 63.0395 15.5168C63.4635 15.9777 63.7829 16.5297 63.9745 17.133C64.1662 17.7363 64.2254 18.3759 64.1478 19.0056C64.1478 22.1033 62.5213 23.8839 59.7155 23.8839H56.313V14.1878H59.7155ZM57.776 22.5126H59.552C59.9916 22.5397 60.4314 22.4655 60.8396 22.2955C61.2477 22.1255 61.6139 21.864 61.9115 21.5299C62.209 21.1959 62.4305 20.7977 62.5597 20.3645C62.689 19.9312 62.7227 19.4738 62.6585 19.0254C62.7181 18.5788 62.6809 18.1242 62.5497 17.6941C62.4185 17.264 62.1964 16.8691 61.8995 16.5377C61.6027 16.2063 61.2382 15.9467 60.8324 15.7773C60.4265 15.6079 59.9893 15.533 59.552 15.558H57.776V22.5126Z" fill="white"/>
<path d="M65.8005 20.2214C65.7558 19.7406 65.8093 19.2554 65.9574 18.797C66.1056 18.3387 66.3451 17.9172 66.6608 17.5598C66.9764 17.2023 67.3612 16.9167 67.7903 16.7212C68.2195 16.5258 68.6836 16.4248 69.1529 16.4248C69.6222 16.4248 70.0863 16.5258 70.5155 16.7212C70.9447 16.9167 71.3294 17.2023 71.645 17.5598C71.9607 17.9172 72.2003 18.3387 72.3484 18.797C72.4966 19.2554 72.55 19.7406 72.5053 20.2214C72.5508 20.7028 72.498 21.1886 72.3503 21.6477C72.2025 22.1068 71.9631 22.529 71.6474 22.8872C71.3316 23.2454 70.9466 23.5316 70.517 23.7275C70.0874 23.9233 69.6228 24.0245 69.1529 24.0245C68.6831 24.0245 68.2184 23.9233 67.7888 23.7275C67.3592 23.5316 66.9742 23.2454 66.6585 22.8872C66.3427 22.529 66.1033 22.1068 65.9555 21.6477C65.8078 21.1886 65.755 20.7028 65.8005 20.2214V20.2214ZM71.0623 20.2214C71.0623 18.6353 70.3701 17.7078 69.1552 17.7078C67.9358 17.7078 67.2498 18.6353 67.2498 20.2214C67.2498 21.8203 67.9358 22.7407 69.1552 22.7407C70.3701 22.7406 71.0623 21.8139 71.0623 20.2214H71.0623Z" fill="white"/>
<path d="M81.4176 23.8837H79.9623L78.4931 18.4945H78.3821L76.919 23.8837H75.4775L73.5181 16.5664H74.941L76.2145 22.1499H76.3193L77.7808 16.5664H79.1267L80.5882 22.1499H80.6992L81.9665 16.5664H83.3694L81.4176 23.8837Z" fill="white"/>
<path d="M85.0176 16.5664H86.3681V17.7288H86.4729C86.6508 17.3113 86.9507 16.9614 87.331 16.7277C87.7113 16.494 88.1529 16.3882 88.5943 16.4252C88.9402 16.3984 89.2875 16.4521 89.6105 16.5822C89.9335 16.7124 90.2239 16.9157 90.4602 17.1771C90.6965 17.4384 90.8726 17.7512 90.9756 18.0921C91.0785 18.4331 91.1056 18.7935 91.0548 19.1467V23.8836H89.6519V19.5094C89.6519 18.3335 89.1555 17.7487 88.1179 17.7487C87.8831 17.7374 87.6486 17.7786 87.4307 17.8693C87.2127 17.96 87.0164 18.0982 86.8552 18.2743C86.694 18.4504 86.5717 18.6603 86.4966 18.8897C86.4216 19.119 86.3956 19.3623 86.4205 19.603V23.8837H85.0176L85.0176 16.5664Z" fill="white"/>
<path d="M93.29 13.71H94.693V23.8837H93.29V13.71Z" fill="white"/>
<path d="M96.6433 20.2216C96.5986 19.7407 96.6521 19.2555 96.8003 18.7971C96.9484 18.3387 97.1881 17.9173 97.5037 17.5598C97.8194 17.2023 98.2042 16.9167 98.6334 16.7212C99.0626 16.5258 99.5267 16.4248 99.996 16.4248C100.465 16.4248 100.93 16.5258 101.359 16.7212C101.788 16.9167 102.173 17.2023 102.488 17.5598C102.804 17.9173 103.044 18.3387 103.192 18.7971C103.34 19.2555 103.393 19.7407 103.349 20.2216C103.394 20.7029 103.341 21.1888 103.194 21.6479C103.046 22.107 102.806 22.5292 102.491 22.8873C102.175 23.2455 101.79 23.5317 101.36 23.7276C100.931 23.9234 100.466 24.0246 99.996 24.0246C99.5262 24.0246 99.0615 23.9234 98.6319 23.7276C98.2023 23.5317 97.8172 23.2455 97.5015 22.8873C97.1857 22.5292 96.9462 22.107 96.7984 21.6479C96.6506 21.1888 96.5978 20.7029 96.6433 20.2216V20.2216ZM101.905 20.2216C101.905 18.6354 101.213 17.7079 99.998 17.7079C98.7785 17.7079 98.0925 18.6354 98.0925 20.2216C98.0925 21.8204 98.7785 22.7408 99.998 22.7408C101.213 22.7408 101.905 21.814 101.905 20.2216H101.905Z" fill="white"/>
<path d="M104.826 21.814C104.826 20.4968 105.778 19.7375 107.47 19.6296L109.395 19.5153V18.8837C109.395 18.1109 108.899 17.6745 107.94 17.6745C107.157 17.6745 106.614 17.9705 106.458 18.4878H105.1C105.243 17.231 106.392 16.4248 108.005 16.4248C109.787 16.4248 110.792 17.3381 110.792 18.8837V23.8833H109.441V22.855H109.33C109.105 23.2238 108.789 23.5245 108.414 23.7264C108.039 23.9282 107.618 24.024 107.195 24.0039C106.897 24.0358 106.595 24.003 106.31 23.9076C106.024 23.8123 105.762 23.6564 105.538 23.4501C105.315 23.2437 105.136 22.9915 105.014 22.7097C104.891 22.4279 104.827 22.1228 104.826 21.814V21.814ZM109.395 21.1887V20.577L107.659 20.6912C106.68 20.7586 106.236 21.1014 106.236 21.7465C106.236 22.4051 106.791 22.7883 107.555 22.7883C107.778 22.8116 108.004 22.7884 108.219 22.72C108.433 22.6516 108.633 22.5394 108.804 22.3902C108.976 22.2409 109.117 22.0577 109.218 21.8512C109.32 21.6448 109.38 21.4195 109.395 21.1887V21.1887Z" fill="white"/>
<path d="M112.636 20.2219C112.636 17.9098 113.791 16.445 115.587 16.445C116.031 16.424 116.472 16.5335 116.858 16.7608C117.244 16.9881 117.559 17.3239 117.767 17.7288H117.872V13.71H119.275V23.8837H117.93V22.7276H117.819C117.596 23.1298 117.27 23.4613 116.876 23.6864C116.483 23.9114 116.037 24.0213 115.587 24.0043C113.779 24.0043 112.636 22.5396 112.636 20.2219ZM114.085 20.2219C114.085 21.7739 114.796 22.7078 115.985 22.7078C117.167 22.7078 117.898 21.7604 117.898 20.2282C117.898 18.7032 117.16 17.7423 115.985 17.7423C114.804 17.7423 114.085 18.6826 114.085 20.2219H114.085Z" fill="white"/>
<path d="M125.079 20.2214C125.034 19.7406 125.088 19.2554 125.236 18.797C125.384 18.3387 125.623 17.9172 125.939 17.5598C126.255 17.2023 126.639 16.9167 127.069 16.7212C127.498 16.5258 127.962 16.4248 128.431 16.4248C128.901 16.4248 129.365 16.5258 129.794 16.7212C130.223 16.9167 130.608 17.2023 130.923 17.5598C131.239 17.9172 131.479 18.3387 131.627 18.797C131.775 19.2554 131.828 19.7406 131.784 20.2214C131.829 20.7028 131.776 21.1886 131.629 21.6477C131.481 22.1068 131.241 22.529 130.926 22.8872C130.61 23.2454 130.225 23.5316 129.795 23.7275C129.366 23.9233 128.901 24.0245 128.431 24.0245C127.961 24.0245 127.497 23.9233 127.067 23.7275C126.638 23.5316 126.252 23.2454 125.937 22.8872C125.621 22.529 125.382 22.1068 125.234 21.6477C125.086 21.1886 125.033 20.7028 125.079 20.2214V20.2214ZM130.341 20.2214C130.341 18.6353 129.648 17.7078 128.434 17.7078C127.214 17.7078 126.528 18.6353 126.528 20.2214C126.528 21.8203 127.214 22.7407 128.434 22.7407C129.648 22.7406 130.341 21.8139 130.341 20.2214Z" fill="white"/>
<path d="M133.666 16.5664H135.017V17.7288H135.121C135.299 17.3113 135.599 16.9614 135.979 16.7277C136.36 16.494 136.801 16.3882 137.243 16.4252C137.589 16.3984 137.936 16.4521 138.259 16.5822C138.582 16.7124 138.872 16.9157 139.109 17.1771C139.345 17.4384 139.521 17.7512 139.624 18.0921C139.727 18.4331 139.754 18.7935 139.703 19.1467V23.8836H138.3V19.5094C138.3 18.3335 137.804 17.7487 136.766 17.7487C136.532 17.7374 136.297 17.7786 136.079 17.8693C135.861 17.96 135.665 18.0982 135.504 18.2743C135.342 18.4504 135.22 18.6603 135.145 18.8897C135.07 19.119 135.044 19.3623 135.069 19.603V23.8837H133.666V16.5664Z" fill="white"/>
<path d="M147.631 14.7451V16.6002H149.171V17.8166H147.631V21.5792C147.631 22.3456 147.937 22.6813 148.636 22.6813C148.815 22.6807 148.993 22.6696 149.171 22.6479V23.8508C148.919 23.8972 148.664 23.9219 148.408 23.9246C146.847 23.9246 146.226 23.3597 146.226 21.9489V17.8165H145.098V16.6002H146.226V14.7451H147.631Z" fill="white"/>
<path d="M151.087 13.71H152.478V17.7423H152.588C152.775 17.3209 153.083 16.969 153.471 16.7344C153.859 16.4998 154.308 16.3941 154.756 16.4315C155.1 16.4123 155.444 16.4714 155.763 16.6047C156.083 16.738 156.37 16.9422 156.603 17.2028C156.837 17.4633 157.012 17.7738 157.116 18.112C157.22 18.4502 157.25 18.8079 157.204 19.1594V23.8837H155.8V19.5157C155.8 18.3469 155.271 17.755 154.28 17.755C154.039 17.7346 153.796 17.7688 153.569 17.855C153.342 17.9412 153.136 18.0774 152.966 18.2541C152.795 18.4308 152.664 18.6437 152.582 18.8779C152.5 19.1122 152.468 19.362 152.49 19.6101V23.8836H151.087L151.087 13.71Z" fill="white"/>
<path d="M165.385 21.9077C165.194 22.5765 164.781 23.1549 164.218 23.5419C163.655 23.9289 162.977 24.0998 162.304 24.0246C161.836 24.0374 161.371 23.945 160.94 23.7541C160.51 23.5631 160.126 23.278 159.813 22.9187C159.501 22.5593 159.268 22.1343 159.131 21.6731C158.994 21.2119 158.957 20.7255 159.021 20.2478C158.958 19.7686 158.997 19.2812 159.133 18.8186C159.27 18.356 159.501 17.929 159.812 17.5665C160.123 17.2041 160.506 16.9145 160.934 16.7176C161.363 16.5206 161.828 16.4208 162.298 16.4249C164.276 16.4249 165.469 17.8159 165.469 20.1137V20.6176H160.45V20.6985C160.428 20.967 160.461 21.2373 160.546 21.492C160.631 21.7467 160.768 21.9803 160.946 22.1776C161.124 22.375 161.34 22.5319 161.581 22.6381C161.822 22.7444 162.081 22.7977 162.343 22.7947C162.678 22.8362 163.018 22.774 163.32 22.6161C163.621 22.4581 163.869 22.2115 164.034 21.9077L165.385 21.9077ZM160.45 19.5496H164.04C164.058 19.304 164.025 19.0573 163.945 18.8254C163.865 18.5935 163.738 18.3814 163.573 18.2029C163.408 18.0244 163.209 17.8833 162.988 17.7888C162.767 17.6943 162.53 17.6484 162.29 17.654C162.048 17.6509 161.807 17.6978 161.582 17.7919C161.357 17.8861 161.153 18.0256 160.982 18.2023C160.81 18.3789 160.675 18.5891 160.583 18.8205C160.492 19.0519 160.447 19.2998 160.45 19.5496H160.45Z" fill="white"/>
</g>
<defs>
<clipPath id="clip0_221_2041">
<rect width="188.911" height="65" fill="white"/>
</clipPath>
</defs>
</svg>
