<svg width="211" height="65" viewBox="0 0 211 65" fill="none" xmlns="http://www.w3.org/2000/svg">
<g clip-path="url(#clip0_221_2053)">
<path d="M195.643 0H13.1515C12.6758 0 12.2001 0 11.7201 0C10.6735 0.0156659 9.62937 0.111262 8.59645 0.286C7.57021 0.464909 6.57649 0.803919 5.64958 1.29133C4.71723 1.78198 3.86501 2.41943 3.12369 3.18067C2.3825 3.94229 1.76302 4.8198 1.2882 5.78067C0.808935 6.74834 0.476705 7.78596 0.303107 8.85733C0.128632 9.91848 0.035728 10.9921 0.0252589 12.0683C0 12.5667 0 13.052 0 13.546V51.4583C0 51.9567 0 52.442 0.0252589 52.9403C0.0360933 54.0165 0.128995 55.0901 0.303107 56.1513C0.475203 57.2075 0.803146 58.2305 1.27557 59.1847C2.23054 61.1254 3.75705 62.7058 5.63695 63.7C6.56426 64.1883 7.55767 64.5301 8.58382 64.714C9.61684 64.8873 10.6609 64.9815 11.7075 64.9957C12.1874 64.9957 12.6631 64.9957 13.1388 64.9957H197.318C197.794 64.9957 198.278 64.9957 198.754 64.9957C199.798 64.9824 200.839 64.8882 201.869 64.714C202.905 64.5294 203.908 64.1877 204.846 63.7C205.781 63.2145 206.634 62.5765 207.371 61.8107C208.116 61.0503 208.739 60.1727 209.215 59.2107C209.683 58.2553 210.008 57.2326 210.179 56.1773C210.354 55.1159 210.451 54.0426 210.47 52.9663C210.47 52.468 210.47 51.9827 210.47 51.4843C210.47 50.9037 210.47 50.323 210.47 49.751V15.2967C210.47 14.7073 210.47 14.1267 210.47 13.5633C210.47 13.0693 210.47 12.5753 210.47 12.0857C210.451 11.0094 210.354 9.93605 210.179 8.87467C210.007 7.81977 209.682 6.79737 209.215 5.84133C208.261 3.89488 206.737 2.30626 204.858 1.3C203.92 0.817587 202.917 0.483072 201.882 0.307667C200.852 0.131978 199.81 0.0363746 198.767 0.0216667C198.291 0.0216667 197.807 0.0216667 197.331 0.0216667L195.643 0Z" fill="#B6B6B6"/>
<path d="M13.1597 63.5961C12.684 63.5961 12.2209 63.5961 11.7494 63.5961C10.7734 63.5831 9.79975 63.4962 8.8362 63.3361C7.93931 63.1793 7.06976 62.8873 6.25558 62.4695C4.63799 61.6161 3.32047 60.2629 2.48779 58.5998C2.07801 57.7619 1.79412 56.8647 1.64583 55.9391C1.48486 54.945 1.399 53.9396 1.38903 52.9318C1.38903 52.5938 1.36377 51.4671 1.36377 51.4671V13.5461C1.36377 13.5461 1.36377 12.4368 1.38903 12.1118C1.39631 11.1026 1.48077 10.0956 1.64162 9.10012C1.78799 8.17125 2.07195 7.271 2.48358 6.43078C2.89277 5.604 3.42867 4.85046 4.07068 4.19912C4.71188 3.53841 5.44898 2.98435 6.25558 2.55678C7.06795 2.13816 7.93623 1.84609 8.83199 1.69011C9.79802 1.52659 10.7747 1.43823 11.7536 1.42578H13.1597H197.322H198.745C199.716 1.43433 200.684 1.52126 201.642 1.68578C202.546 1.83855 203.423 2.13071 204.243 2.55245C205.865 3.4133 207.181 4.77783 208.007 6.45245C208.416 7.28628 208.699 8.17892 208.849 9.10012C209.011 10.1031 209.101 11.1169 209.118 12.1335C209.118 12.5885 209.118 13.0781 209.118 13.5635C209.118 14.1658 209.118 14.7378 209.118 15.2968V49.7035C209.118 50.2885 209.118 50.8561 209.118 51.4368C209.118 52.0175 209.118 52.4378 209.118 52.9318C209.103 53.9282 209.014 54.9219 208.853 55.9045C208.709 56.8367 208.425 57.7402 208.011 58.5825C207.175 60.2393 205.86 61.5883 204.248 62.4435C203.429 62.8657 202.553 63.1579 201.65 63.3101C200.687 63.4711 199.713 63.558 198.737 63.5701C198.282 63.5701 197.802 63.5701 197.339 63.5701H13.1597V63.5961Z" fill="black"/>
<path d="M78.1302 43.8796H70.7251L68.9275 48.9669H65.6733L72.9142 29.9609H75.9874L83.3925 48.9669H79.9867L78.1302 43.8796ZM71.6681 41.2796H77.183L75.2086 35.8369C74.9391 35.0873 74.6697 34.2553 74.4087 33.3453C74.1688 34.1513 73.9077 34.9703 73.6299 35.8109L71.6681 41.2796Z" fill="white"/>
<path d="M84.7016 38.2765C84.7016 37.2279 84.6679 36.0723 84.6006 34.8099H87.5475C87.6582 35.4041 87.7341 36.0046 87.7748 36.6082C88.2904 35.9721 88.9336 35.4584 89.6603 35.1024C90.387 34.7464 91.1799 34.5564 91.9846 34.5455C92.9282 34.5302 93.8548 34.8048 94.6459 35.3344C95.4371 35.8639 96.0568 36.6242 96.426 37.5182C96.9438 38.7472 97.1897 40.0793 97.1458 41.4182C97.1779 42.878 96.8901 44.3265 96.3039 45.6562C95.8135 46.7598 95.0128 47.6866 94.0053 48.3169C92.9687 48.9334 91.7881 49.2466 90.5912 49.2225C89.6493 49.2219 88.7142 49.0579 87.8253 48.7372V54.6002L84.6764 54.8775L84.7016 38.2765ZM92.9781 45.5002C93.618 44.6335 93.9422 43.3335 93.9422 41.6002C93.9422 40.02 93.6756 38.8644 93.1423 38.1335C92.9014 37.7939 92.584 37.5194 92.2174 37.3337C91.8508 37.1481 91.4459 37.0567 91.0374 37.0675C90.4491 37.0595 89.8689 37.2088 89.3535 37.5009C88.806 37.8201 88.3079 38.2217 87.8758 38.6925V46.2759C88.2247 46.4452 88.5922 46.5703 88.9704 46.6485C89.3771 46.7391 89.7919 46.7856 90.2081 46.7872C90.7365 46.8198 91.2648 46.7197 91.7473 46.4955C92.2299 46.2713 92.6523 45.9297 92.9781 45.5002Z" fill="white"/>
<path d="M99.061 38.2765C99.061 37.2279 99.0273 36.0723 98.96 34.8099H101.907C102.021 35.4036 102.098 36.0043 102.138 36.6082C103.365 35.2331 104.768 34.5455 106.348 34.5455C107.292 34.5302 108.218 34.8048 109.009 35.3344C109.801 35.8639 110.42 36.6242 110.79 37.5182C111.307 38.7472 111.553 40.0793 111.509 41.4182C111.548 42.8764 111.267 44.3248 110.688 45.6562C110.197 46.7604 109.395 47.6872 108.386 48.3169C107.349 48.9341 106.169 49.2473 104.972 49.2225C104.03 49.2219 103.095 49.0579 102.206 48.7372V54.6002L99.0568 54.8775L99.061 38.2765ZM107.35 45.5002C107.99 44.6133 108.31 43.3133 108.31 41.6002C108.31 40.02 108.045 38.8644 107.514 38.1335C107.273 37.7939 106.956 37.5194 106.589 37.3337C106.223 37.1481 105.818 37.0567 105.409 37.0675C104.821 37.0602 104.241 37.2095 103.725 37.5009C103.178 37.8201 102.68 38.2217 102.248 38.6925V46.2759C102.597 46.4439 102.965 46.569 103.342 46.6485C103.749 46.7391 104.164 46.7856 104.58 46.7872C105.108 46.819 105.636 46.7186 106.119 46.4944C106.601 46.2703 107.024 45.9291 107.35 45.5002Z" fill="white"/>
<path d="M117.298 48.0695C115.953 47.31 114.86 46.1521 114.162 44.7458C113.398 43.1568 113.023 41.4002 113.067 39.6282C113.012 37.7322 113.448 35.8554 114.33 34.1898C115.126 32.7445 116.322 31.5755 117.765 30.8315C119.282 30.0686 120.952 29.6841 122.64 29.7092C123.664 29.7046 124.684 29.8268 125.68 30.0732C126.611 30.2988 127.514 30.6301 128.374 31.0612L127.557 33.5528C126.068 32.7796 124.43 32.3591 122.762 32.3222C121.585 32.302 120.424 32.6009 119.394 33.1888C118.418 33.7659 117.633 34.6328 117.142 35.6762C116.578 36.9137 116.304 38.2703 116.342 39.6368C116.321 40.868 116.53 42.0919 116.957 43.2422C117.345 44.2603 118.026 45.1315 118.91 45.7382C119.917 46.3867 121.091 46.707 122.278 46.6568C122.893 46.6553 123.507 46.6017 124.114 46.4965C124.701 46.4005 125.277 46.2466 125.835 46.0372V42.1718H121.567V39.6542H128.896V47.6665C127.833 48.1766 126.719 48.5674 125.574 48.8322C124.439 49.1013 123.279 49.2379 122.114 49.2395C120.438 49.2809 118.779 48.878 117.298 48.0695Z" fill="white"/>
<path d="M140.082 48.9668C139.962 48.348 139.889 47.7207 139.863 47.0905C139.337 47.7203 138.694 48.2359 137.972 48.6071C137.158 49.032 136.255 49.2461 135.341 49.2311C134.594 49.2408 133.854 49.0764 133.177 48.7501C132.534 48.4393 131.995 47.9366 131.632 47.3071C131.23 46.5937 131.03 45.7785 131.056 44.9541C131.032 44.3288 131.15 43.7064 131.401 43.1363C131.652 42.5662 132.028 42.064 132.5 41.6695C133.459 40.849 135.061 40.4402 137.303 40.4431C138.138 40.4427 138.973 40.5036 139.799 40.6251V40.3478C139.799 39.0998 139.541 38.2187 139.025 37.7045C138.408 37.1576 137.606 36.8822 136.794 36.9375C136.066 36.9466 135.342 37.0485 134.638 37.2408C133.941 37.4138 133.262 37.6546 132.609 37.9601L132.112 35.6028C132.826 35.2892 133.568 35.0468 134.327 34.8791C135.281 34.6569 136.257 34.5465 137.236 34.5498C138.273 34.5206 139.304 34.7109 140.267 35.1088C141.113 35.4941 141.803 36.1715 142.216 37.0241C142.733 38.1658 142.974 39.419 142.919 40.6771V46.3105C142.919 46.8882 142.953 47.7751 143.02 48.9711L140.082 48.9668ZM138.196 46.3668C138.802 46.0765 139.347 45.6657 139.799 45.1578V42.5578C139.101 42.4728 138.398 42.425 137.695 42.4148C136.395 42.4148 135.496 42.6315 134.996 43.0648C134.752 43.2767 134.559 43.5429 134.43 43.8431C134.301 44.1434 134.239 44.47 134.251 44.7981C134.228 45.0817 134.265 45.3669 134.359 45.6346C134.452 45.9023 134.601 46.1461 134.794 46.3495C135.204 46.7057 135.731 46.887 136.267 46.8565C136.938 46.846 137.597 46.6786 138.196 46.3668Z" fill="white"/>
<path d="M145.353 45.5697V28.843L148.485 28.583V44.9933C148.44 45.4489 148.545 45.9067 148.784 46.2933C148.904 46.4265 149.052 46.5297 149.217 46.595C149.382 46.6603 149.559 46.6861 149.735 46.6703C150.02 46.6576 150.303 46.6081 150.577 46.523L150.947 48.8457C150.595 48.9827 150.229 49.0814 149.857 49.1403C149.455 49.2121 149.048 49.2498 148.64 49.253C146.448 49.2386 145.353 48.0108 145.353 45.5697Z" fill="white"/>
<path d="M153.187 45.5697V28.843L156.323 28.583V44.9933C156.279 45.4489 156.384 45.9067 156.622 46.2933C156.743 46.4265 156.891 46.5297 157.056 46.595C157.22 46.6603 157.398 46.6861 157.574 46.6703C157.859 46.6576 158.142 46.6081 158.416 46.523L158.782 48.8457C158.431 48.9827 158.067 49.0815 157.696 49.1403C157.292 49.2123 156.884 49.25 156.475 49.253C154.286 49.2386 153.19 48.0108 153.187 45.5697Z" fill="white"/>
<path d="M171.664 42.3024H162.667C162.81 45.2693 164.183 46.7527 166.784 46.7527C167.452 46.7492 168.117 46.6678 168.767 46.5101C169.431 46.3511 170.08 46.1336 170.708 45.8601L171.398 48.0787C169.778 48.865 168.003 49.2593 166.212 49.2314C164.928 49.2695 163.656 48.9713 162.516 48.3647C161.527 47.8149 160.734 46.9561 160.251 45.9121C159.716 44.7026 159.457 43.3836 159.493 42.0554C159.458 40.6637 159.733 39.2822 160.297 38.0167C160.778 36.9429 161.555 36.0386 162.532 35.4167C163.534 34.8096 164.679 34.5006 165.841 34.5241C166.995 34.4821 168.132 34.8108 169.096 35.4644C169.965 36.0852 170.638 36.9545 171.032 37.9647C171.466 39.0652 171.68 40.244 171.664 41.4314V42.3024ZM168.595 40.2441C168.601 39.324 168.304 38.429 167.753 37.7047C167.506 37.4199 167.201 37.1946 166.859 37.0448C166.518 36.895 166.149 36.8244 165.778 36.8381C165.405 36.8302 165.035 36.9032 164.691 37.0526C164.347 37.2019 164.038 37.4241 163.783 37.7047C163.189 38.4166 162.826 39.3011 162.743 40.2354L168.595 40.2441Z" fill="white"/>
<path d="M174.047 38.3668C174.047 37.5912 174.009 36.4038 173.941 34.8135H176.888C176.939 35.2078 176.985 35.6802 177.036 36.2218C177.086 36.7635 177.111 37.2142 177.128 37.5565C177.445 37.0042 177.806 36.4796 178.206 35.9878C178.553 35.5676 178.973 35.2166 179.444 34.9522C179.938 34.6773 180.494 34.5384 181.056 34.5492C181.482 34.5385 181.908 34.5925 182.319 34.7095L181.923 37.5175C181.43 37.3706 180.913 37.3333 180.405 37.408C179.896 37.4827 179.41 37.6678 178.976 37.9508C178.28 38.4839 177.672 39.131 177.179 39.8662V48.9662H174.047V38.3668Z" fill="white"/>
<path d="M184.07 54.7608C183.686 54.6969 183.307 54.6027 182.938 54.4791L183.51 52.1174C183.775 52.1908 184.043 52.2501 184.314 52.2951C184.617 52.3505 184.924 52.3795 185.232 52.3818C186.635 52.3818 187.679 51.4588 188.364 49.6128L188.57 49.0884L183.497 34.8145H186.865L189.442 42.7921C189.771 43.8183 190.039 44.8647 190.242 45.9251C190.482 44.9025 190.759 43.8798 191.084 42.8571L193.652 34.8145H196.821L191.77 49.1534C191.388 50.3084 190.869 51.4103 190.225 52.4338C189.733 53.2069 189.062 53.8414 188.271 54.2798C187.424 54.7055 186.49 54.9136 185.548 54.8864C185.052 54.8884 184.558 54.8464 184.07 54.7608Z" fill="white"/>
<path d="M65.6733 11.8643H71.2724L71.1166 13.2596H67.3068V15.9593H70.8977V17.2593H67.3068V20.2493H71.3187L71.1798 21.6663H65.6733V11.8643Z" fill="white"/>
<path d="M75.1412 16.6656L72.1943 11.8643H74.0635L76.0673 15.3916L78.1722 11.8643H79.9867L77.0398 16.6049L80.2266 21.6663H78.3322L76.0631 17.8096L73.7519 21.6663H71.9375L75.1412 16.6656Z" fill="white"/>
<path d="M81.4346 11.8643H84.0026C85.2066 11.8643 86.1299 12.117 86.7726 12.6226C87.0923 12.8815 87.3465 13.2161 87.5136 13.5978C87.6807 13.9796 87.7558 14.3972 87.7325 14.8153C87.7503 15.4124 87.6044 16.0025 87.3115 16.5183C87.0256 17.0031 86.6087 17.3916 86.1117 17.6363C85.5594 17.905 84.9543 18.0385 84.3436 18.0263C83.9195 18.0201 83.4969 17.9751 83.0806 17.8919V21.6663H81.4346V11.8643ZM85.5602 16.2409C85.7398 16.0634 85.8798 15.8479 85.9707 15.6092C86.0615 15.3706 86.101 15.1145 86.0864 14.8586C86.1078 14.6134 86.0703 14.3665 85.977 14.1398C85.8838 13.913 85.7377 13.7134 85.5518 13.5586C85.078 13.2616 84.5266 13.1224 83.9731 13.1599H83.0806V16.6266C83.3934 16.6846 83.7101 16.7179 84.0278 16.7263C84.5798 16.7689 85.127 16.5956 85.5602 16.2409Z" fill="white"/>
<path d="M89.3574 11.8643H90.9993V20.2189H94.9396L94.8007 21.6663H89.3574V11.8643Z" fill="white"/>
<path d="M97.4403 21.1853C96.7503 20.7857 96.193 20.1818 95.8406 19.452C95.4577 18.6431 95.2686 17.7516 95.2891 16.852C95.269 15.912 95.4712 14.981 95.8785 14.1393C96.2518 13.3807 96.8386 12.7555 97.5624 12.3453C98.3727 11.9085 99.2795 11.6965 100.194 11.73C101.058 11.7061 101.913 11.9169 102.673 12.341C103.359 12.7421 103.912 13.3459 104.26 14.0743C104.636 14.8748 104.822 15.7553 104.803 16.644C104.826 17.5945 104.622 18.5363 104.21 19.387C103.833 20.143 103.247 20.7673 102.526 21.181C101.73 21.6169 100.838 21.8348 99.9368 21.8137C99.0651 21.8364 98.2034 21.6195 97.4403 21.1853ZM101.701 19.985C102.165 19.6685 102.526 19.2155 102.736 18.685C102.972 18.0777 103.088 17.428 103.077 16.774C103.088 16.132 102.985 15.4933 102.774 14.889C102.585 14.3656 102.248 13.9127 101.806 13.589C101.293 13.2661 100.704 13.0953 100.103 13.0953C99.5021 13.0953 98.9128 13.2661 98.4002 13.589C97.9348 13.9214 97.5723 14.3847 97.3561 14.9237C97.1166 15.5059 96.9976 16.1331 97.0067 16.7653C96.9966 17.4167 97.108 18.064 97.3351 18.672C97.5367 19.2283 97.9055 19.7039 98.3878 20.0297C98.87 20.3554 99.4407 20.5143 100.017 20.4833C100.614 20.4985 101.202 20.3245 101.701 19.985Z" fill="white"/>
<path d="M106.635 11.8647H109.615C110.489 11.801 111.358 12.0373 112.086 12.5363C112.366 12.7623 112.589 13.0544 112.735 13.3879C112.882 13.7213 112.948 14.0862 112.928 14.4517C112.938 14.9268 112.834 15.3971 112.625 15.821C112.443 16.1926 112.188 16.5216 111.876 16.7873C111.597 17.0188 111.285 17.2032 110.95 17.3333L113.897 21.6667H111.981L109.502 17.7667H108.293V21.6667H106.635V11.8647ZM109.215 16.5013C109.581 16.5095 109.943 16.4278 110.272 16.263C110.568 16.1166 110.818 15.8867 110.992 15.6C111.166 15.294 111.254 14.9447 111.249 14.5903C111.266 14.3858 111.233 14.1801 111.154 13.9918C111.074 13.8034 110.951 13.6384 110.794 13.5113C110.399 13.257 109.937 13.1372 109.472 13.169H108.281V16.5187L109.215 16.5013Z" fill="white"/>
<path d="M115.181 11.8643H120.792L120.632 13.2596H116.844V15.9593H120.401V17.2593H116.81V20.2493H120.822L120.7 21.6663H115.181V11.8643Z" fill="white"/>
<path d="M126.896 11.8643H128.538V21.6663H126.896V11.8643Z" fill="white"/>
<path d="M132.887 13.2769H129.94L130.084 11.8643H137.493L137.341 13.2769H134.533V21.6663H132.887V13.2769Z" fill="white"/>
<path d="M144.628 21.1854C143.94 20.7855 143.384 20.1816 143.033 19.4521C142.646 18.6443 142.456 17.7522 142.477 16.8521C142.457 15.9121 142.659 14.9811 143.067 14.1394C143.441 13.3816 144.028 12.7566 144.751 12.3454C145.555 11.9065 146.455 11.6885 147.365 11.7128C148.239 11.6885 149.104 11.9055 149.87 12.3411C150.556 12.7409 151.11 13.3451 151.457 14.0744C151.834 14.8745 152.021 15.7551 152.004 16.6441C152.027 17.5952 151.822 18.5375 151.406 19.3871C151.031 20.1441 150.444 20.7686 149.722 21.1811C148.927 21.6181 148.035 21.836 147.133 21.8138C146.259 21.838 145.394 21.6211 144.628 21.1854ZM148.893 19.9851C149.355 19.6671 149.714 19.2145 149.924 18.6851C150.161 18.0778 150.277 17.4281 150.265 16.7741C150.276 16.1321 150.173 15.4934 149.962 14.8891C149.775 14.366 149.439 13.913 148.998 13.5891C148.485 13.2659 147.895 13.0948 147.293 13.0948C146.692 13.0948 146.102 13.2659 145.588 13.5891C145.123 13.9215 144.76 14.3848 144.544 14.9238C144.307 15.5066 144.188 16.1334 144.195 16.7654C144.185 17.4168 144.296 18.064 144.523 18.6721C144.724 19.2066 145.074 19.668 145.529 19.9981C146.028 20.3367 146.616 20.5064 147.213 20.4834C147.809 20.496 148.395 20.3223 148.893 19.9851Z" fill="white"/>
<path d="M153.827 11.8643H155.713L160.423 19.4606C160.381 18.7369 160.364 18.0739 160.364 17.4629V11.8643H161.888V21.6663H160.061L155.279 13.9486C155.325 14.8153 155.351 15.5996 155.351 16.2799V21.6663H153.827V11.8643Z" fill="white"/>
<path fill-rule="evenodd" clip-rule="evenodd" d="M42.5193 11.917H25.0443C16.8057 11.917 13.7915 15.0197 13.7915 23.5V41.5007C13.7915 49.981 16.8057 53.0837 25.0443 53.0837H42.5193C50.7579 53.0837 53.7763 49.981 53.7763 41.5007V23.5C53.7848 15.0197 50.7705 11.917 42.5193 11.917Z" fill="#C8102E"/>
<path d="M21.7102 32.5H22.771V37.8863H21.7102V35.698H19.3148V37.8863H18.2539V32.5H19.3148V34.6667H21.7102V32.5ZM27.6881 35.581C27.6881 36.4477 27.2671 36.9243 26.5009 36.9243C25.7348 36.9243 25.3054 36.4477 25.3054 35.5333V32.5H24.2445V35.5767C24.2445 37.089 25.0612 37.9557 26.4841 37.9557C27.907 37.9557 28.749 37.089 28.749 35.529V32.5H27.6881V35.581ZM39.9471 36.2007L38.7599 32.5H37.8885L36.7097 36.205L35.552 32.5H34.4238L36.2467 37.8863H37.1265L38.3095 34.3503L39.4966 37.8863H40.3849L42.2078 32.5H41.1048L39.9471 36.2007ZM44.1064 35.5637H46.0387V34.5887H44.1064V33.488H46.9101V32.5H43.0624V37.8733H47.0112V36.9027H44.1064V35.5637ZM48.2741 37.8733H49.3224V32.5H48.2741V37.8733ZM30.8455 36.7597L30.3698 37.8777H29.2878L31.5738 32.5H32.5084L34.8027 37.8777H33.7081L33.2577 36.764L30.8455 36.7597ZM31.2412 35.789H32.8367L32.0368 33.865L31.2412 35.789Z" fill="white"/>
<path d="M33.788 25.6488C32.0232 25.6477 30.3309 24.9255 29.083 23.641C27.835 22.3564 27.1334 20.6145 27.1323 18.7979H28.0711C28.0711 20.3586 28.6734 21.8553 29.7456 22.9589C30.8177 24.0625 32.2718 24.6825 33.788 24.6825C35.3043 24.6825 36.7584 24.0625 37.8305 22.9589C38.9027 21.8553 39.505 20.3586 39.505 18.7979H40.4438C40.4427 20.6145 39.7411 22.3564 38.4931 23.641C37.2452 24.9255 35.5529 25.6477 33.788 25.6488Z" fill="white"/>
</g>
<defs>
<clipPath id="clip0_221_2053">
<rect width="210.491" height="65" fill="white"/>
</clipPath>
</defs>
</svg>
